<svg width="212" height="69" viewBox="0 0 212 69" fill="none" xmlns="http://www.w3.org/2000/svg">
<path d="M0.59375 67.5312L12.5 1.57812C12.5625 1.32813 12.7188 1.20312 12.9688 1.20312H26.8906C27.1406 1.20312 27.2969 1.32813 27.3594 1.57812L38.7969 67.5312C38.8281 67.8438 38.7031 68 38.4219 68H27.7812C27.4688 68 27.2969 67.8438 27.2656 67.5312L26.2344 60.5H13.1562L12.125 67.5312C12.0938 67.8438 11.9375 68 11.6562 68H0.96875C0.71875 68 0.59375 67.8438 0.59375 67.5312ZM20.375 23.2812L19.8125 19.7188L19.3906 23.2812L15.0781 50.2344H24.3125L20.375 23.2812ZM62.375 68H45.1719C44.9219 68 44.7969 67.8438 44.7969 67.5312L44.9844 1.57812C44.9844 1.32813 45.1094 1.20312 45.3594 1.20312H63.8281C67.4219 1.20312 70.6875 2.07813 73.625 3.82812C76.5 5.57812 78.7656 7.90625 80.4219 10.8125C82.0781 13.6875 82.9062 16.8125 82.9062 20.1875C82.9062 22.9375 82.2812 25.5 81.0312 27.875C79.7812 30.25 78.2969 32.1719 76.5781 33.6406C78.4219 35.4844 79.8594 37.625 80.8906 40.0625C81.9219 42.5 82.4375 45.0625 82.4375 47.75C82.4375 51.4688 81.5469 54.8594 79.7656 57.9219C77.9531 60.9844 75.5312 63.4375 72.5 65.2812C69.4688 67.0938 66.0938 68 62.375 68ZM63.8281 12.5938H56.5156V27.6875H63.8281C66.0469 27.6875 67.8438 26.9062 69.2188 25.3438C70.5938 23.75 71.2812 22.0312 71.2812 20.1875C71.2812 18.1563 70.5469 16.3906 69.0781 14.8906C67.6094 13.3594 65.8594 12.5938 63.8281 12.5938ZM62.375 39.3125H56.5156L56.4219 56.2812H62.375C64.6875 56.2812 66.6719 55.4375 68.3281 53.75C69.9844 52.0625 70.8125 50.0625 70.8125 47.75C70.8125 45.4375 69.9844 43.4531 68.3281 41.7969C66.6719 40.1406 64.6875 39.3125 62.375 39.3125ZM107.094 68.9375C103.688 68.9375 100.547 68.0625 97.6719 66.3125C94.8281 64.5625 92.5312 62.2344 90.7812 59.3281C89.0625 56.3906 88.2031 53.1719 88.2031 49.6719L88.2969 19.25C88.2969 15.6875 89.1562 12.4844 90.875 9.64062C92.5625 6.76563 94.8438 4.46875 97.7188 2.75C100.594 1 103.719 0.125 107.094 0.125C110.594 0.125 113.734 0.984375 116.516 2.70312C119.328 4.42188 121.578 6.73438 123.266 9.64062C124.984 12.5156 125.844 15.7188 125.844 19.25L125.938 49.6719C125.938 53.1719 125.094 56.375 123.406 59.2812C121.688 62.2188 119.406 64.5625 116.562 66.3125C113.719 68.0625 110.562 68.9375 107.094 68.9375ZM107.094 57.3594C109.031 57.3594 110.719 56.5781 112.156 55.0156C113.594 53.4219 114.312 51.6406 114.312 49.6719L114.219 19.25C114.219 17.125 113.547 15.3281 112.203 13.8594C110.859 12.3906 109.156 11.6562 107.094 11.6562C105.125 11.6562 103.438 12.375 102.031 13.8125C100.625 15.25 99.9219 17.0625 99.9219 19.25V49.6719C99.9219 51.7656 100.625 53.5781 102.031 55.1094C103.438 56.6094 105.125 57.3594 107.094 57.3594ZM150.875 68.9375C147.5 68.9375 144.375 68.0625 141.5 66.3125C138.625 64.5625 136.328 62.2188 134.609 59.2812C132.922 56.3125 132.078 53.0781 132.078 49.5781L132.266 1.57812C132.266 1.32813 132.391 1.20312 132.641 1.20312H143.422C143.672 1.20312 143.797 1.32813 143.797 1.57812V49.5781C143.797 51.7344 144.484 53.5781 145.859 55.1094C147.234 56.6094 148.906 57.3594 150.875 57.3594C152.938 57.3594 154.656 56.6094 156.031 55.1094C157.406 53.5781 158.094 51.7344 158.094 49.5781V1.57812C158.094 1.32813 158.219 1.20312 158.469 1.20312H169.25C169.5 1.20312 169.625 1.32813 169.625 1.57812L169.812 49.5781C169.812 53.1094 168.969 56.3594 167.281 59.3281C165.562 62.2656 163.281 64.6094 160.438 66.3594C157.594 68.0781 154.406 68.9375 150.875 68.9375ZM197.844 68H187.016C186.734 68 186.594 67.8438 186.594 67.5312V12.7812H174.125C173.812 12.7812 173.656 12.625 173.656 12.3125L173.75 1.57812C173.75 1.32813 173.875 1.20312 174.125 1.20312H210.594C210.938 1.20312 211.109 1.32813 211.109 1.57812V12.3125C211.109 12.625 210.984 12.7812 210.734 12.7812H198.125L198.219 67.5312C198.219 67.8438 198.094 68 197.844 68Z" fill="#132127"/>
</svg>
