<svg width="100%" height="100%" viewBox="0 0 1360 306" fill="currentColor" xmlns="http://www.w3.org/2000/svg">
<path d="M88.8379 200.006H137.314V244H59.6191L15.459 200.006V111.686H0.849609V67.6914H15.459V48.5996L88.8379 23.6973V200.006ZM100.459 111.686V67.6914H139.971V111.686H100.459ZM263.818 305.426H193.428L282.744 67.6914H353.301L263.818 305.426ZM145.947 67.6914H219.16L243.896 139.41L211.025 229.225L145.947 67.6914ZM368.408 302.77V67.6914H441.787V302.77H368.408ZM485.781 111.686H453.408V89.4395L474.99 67.6914H515.166L559.326 111.686V200.006L515.166 244H453.408V202.828H485.781V111.686ZM789.092 200.006L745.098 244H695.957V202.828H714.219V111.686H695.957V67.6914H745.098L789.092 111.686V200.006ZM665.244 202.828H684.336V244H635.029L591.035 200.006V111.686L635.029 67.6914H684.336V111.686H665.244V202.828ZM928.545 244H863.467L822.295 202.828V0.455078H895.674V200.006H928.545V244ZM1063.68 244V111.686H959.258V89.7715L981.338 67.6914H1091.41L1135.4 111.686V244H1063.68ZM1052.06 141.402V171.949H1014.21V202.828H1052.06V222.252L1030.15 244H974.033L944.482 214.947V170.787L974.033 141.402H1052.06ZM1241.98 0.455078V244H1168.6V0.455078H1241.98ZM1286.47 111.686H1253.6V89.4395L1275.19 67.6914H1315.36L1359.52 111.686V200.006L1315.36 244H1253.6V202.828H1286.47V111.686Z" fill="currentColor"/>
</svg>
