<svg width="100%" height="100%" viewBox="0 0 803 240" fill="none" xmlns="http://www.w3.org/2000/svg">
<path d="M352.672 104V104.5H353.561L353.099 103.74L352.672 104ZM315.953 104L315.525 104.259L315.671 104.5H315.953V104ZM253.141 0.328125V-0.171875H252.253L252.713 0.587219L253.141 0.328125ZM289.625 0.328125L290.052 0.0683252L289.906 -0.171875H289.625V0.328125ZM253.141 104H252.641V104.5H253.141V104ZM253.141 10.1719L253.567 9.91145L252.641 8.39242V10.1719H253.141ZM283.219 59.4688H283.719V59.3283L283.646 59.2083L283.219 59.4688ZM283.219 104V104.5H283.719V104H283.219ZM352.672 0.328125H353.172V-0.171875H352.672V0.328125ZM352.672 94.1562L352.245 94.4158L353.172 95.9429V94.1562H352.672ZM322.594 44.625H322.094V44.7649L322.166 44.8845L322.594 44.625ZM322.594 0.328125V-0.171875H322.094V0.328125H322.594ZM352.672 103.5H315.953V104.5H352.672V103.5ZM316.381 103.741L253.568 0.0690313L252.713 0.587219L315.525 104.259L316.381 103.741ZM253.141 0.828125H289.625V-0.171875H253.141V0.828125ZM289.198 0.587925L352.245 104.26L353.099 103.74L290.052 0.0683252L289.198 0.587925ZM253.641 104V10.1719H252.641V104H253.641ZM252.714 10.4323L282.792 59.7292L283.646 59.2083L253.567 9.91145L252.714 10.4323ZM282.719 59.4688V104H283.719V59.4688H282.719ZM283.219 103.5H253.141V104.5H283.219V103.5ZM352.172 0.328125V94.1562H353.172V0.328125H352.172ZM353.099 93.8967L323.021 44.3655L322.166 44.8845L352.245 94.4158L353.099 93.8967ZM323.094 44.625V0.328125H322.094V44.625H323.094ZM322.594 0.828125H352.672V-0.171875H322.594V0.828125ZM462.438 83.2969L462.791 83.6504L462.938 83.504V83.2969H462.438ZM441.734 104V104.5H441.941L442.088 104.354L441.734 104ZM418.609 104H418.109V104.5H418.609V104ZM418.609 84.625V84.125H418.109V84.625H418.609ZM427.203 84.625V85.125H427.703V84.625H427.203ZM427.203 41.7344H427.703V41.2344H427.203V41.7344ZM418.609 41.7344H418.109V42.2344H418.609V41.7344ZM418.609 21.0312V20.5312H418.109V21.0312H418.609ZM441.734 21.0312L442.088 20.6777L441.941 20.5312H441.734V21.0312ZM462.438 41.7344H462.938V41.5273L462.791 41.3808L462.438 41.7344ZM404.156 84.625H403.656V85.125H404.156V84.625ZM413.141 84.625H413.641V84.125H413.141V84.625ZM413.141 104V104.5H413.641V104H413.141ZM389.938 104L389.584 104.354L389.73 104.5H389.938V104ZM369.234 83.2969H368.734V83.504L368.881 83.6504L369.234 83.2969ZM369.234 41.7344L368.881 41.3808L368.734 41.5273V41.7344H369.234ZM389.938 21.0312V20.5312H389.73L389.584 20.6777L389.938 21.0312ZM413.141 21.0312H413.641V20.5312H413.141V21.0312ZM413.141 41.7344V42.2344H413.641V41.7344H413.141ZM404.156 41.7344V41.2344H403.656V41.7344H404.156ZM462.084 82.9433L441.381 103.646L442.088 104.354L462.791 83.6504L462.084 82.9433ZM441.734 103.5H418.609V104.5H441.734V103.5ZM419.109 104V84.625H418.109V104H419.109ZM418.609 85.125H427.203V84.125H418.609V85.125ZM427.703 84.625V41.7344H426.703V84.625H427.703ZM427.203 41.2344H418.609V42.2344H427.203V41.2344ZM419.109 41.7344V21.0312H418.109V41.7344H419.109ZM418.609 21.5312H441.734V20.5312H418.609V21.5312ZM441.381 21.3848L462.084 42.0879L462.791 41.3808L442.088 20.6777L441.381 21.3848ZM461.938 41.7344V83.2969H462.938V41.7344H461.938ZM404.156 85.125H413.141V84.125H404.156V85.125ZM412.641 84.625V104H413.641V84.625H412.641ZM413.141 103.5H389.938V104.5H413.141V103.5ZM390.291 103.646L369.588 82.9433L368.881 83.6504L389.584 104.354L390.291 103.646ZM369.734 83.2969V41.7344H368.734V83.2969H369.734ZM369.588 42.0879L390.291 21.3848L389.584 20.6777L368.881 41.3808L369.588 42.0879ZM389.938 21.5312H413.141V20.5312H389.938V21.5312ZM412.641 21.0312V41.7344H413.641V21.0312H412.641ZM413.141 41.2344H404.156V42.2344H413.141V41.2344ZM403.656 41.7344V84.625H404.656V41.7344H403.656ZM253.141 240H252.641V240.5H253.141V240ZM253.141 136.328V135.828H252.641V136.328H253.141ZM287.672 136.328H288.172V135.828H287.672V136.328ZM287.672 240V240.5H288.172V240H287.672ZM293.141 157.031H292.641V157.531H293.141V157.031ZM293.141 136.328V135.828H292.641V136.328H293.141ZM332.594 136.328L332.947 135.974L332.8 135.828H332.594V136.328ZM353.375 157.031H353.875V156.824L353.728 156.677L353.375 157.031ZM353.375 188.125L353.729 188.479L353.875 188.332V188.125H353.375ZM337.438 204.062L336.99 204.286L337.301 204.907L337.791 204.416L337.438 204.062ZM336.344 201.875L336.791 201.651L336.632 201.332L336.278 201.379L336.344 201.875ZM303.922 206.172L303.856 205.676L303.186 205.765L303.467 206.38L303.922 206.172ZM305.172 208.906V209.406H305.95L305.627 208.698L305.172 208.906ZM293.141 208.906H292.641V209.406H293.141V208.906ZM293.141 188.828V188.328H292.641V188.828H293.141ZM319.078 188.828V189.328H319.578V188.828H319.078ZM319.078 157.031H319.578V156.531H319.078V157.031ZM356.891 240V240.5H357.73L357.33 239.762L356.891 240ZM320.016 240L319.564 240.215L319.7 240.5H320.016V240ZM305.172 208.906V208.406H304.379L304.721 209.122L305.172 208.906ZM332.594 208.906V209.406H332.801L332.947 209.26L332.594 208.906ZM337.438 204.062L337.877 203.824L337.558 203.235L337.084 203.709L337.438 204.062ZM253.641 240V136.328H252.641V240H253.641ZM253.141 136.828H287.672V135.828H253.141V136.828ZM287.172 136.328V240H288.172V136.328H287.172ZM287.672 239.5H253.141V240.5H287.672V239.5ZM293.641 157.031V136.328H292.641V157.031H293.641ZM293.141 136.828H332.594V135.828H293.141V136.828ZM332.241 136.682L353.022 157.385L353.728 156.677L332.947 135.974L332.241 136.682ZM352.875 157.031V188.125H353.875V157.031H352.875ZM353.021 187.771L337.084 203.709L337.791 204.416L353.729 188.479L353.021 187.771ZM337.885 203.839L336.791 201.651L335.897 202.099L336.99 204.286L337.885 203.839ZM336.278 201.379L303.856 205.676L303.988 206.668L336.409 202.371L336.278 201.379ZM303.467 206.38L304.717 209.114L305.627 208.698L304.377 205.964L303.467 206.38ZM305.172 208.406H293.141V209.406H305.172V208.406ZM293.641 208.906V188.828H292.641V208.906H293.641ZM293.141 189.328H319.078V188.328H293.141V189.328ZM319.578 188.828V157.031H318.578V188.828H319.578ZM319.078 156.531H293.141V157.531H319.078V156.531ZM356.891 239.5H320.016V240.5H356.891V239.5ZM320.467 239.785L305.623 208.691L304.721 209.122L319.564 240.215L320.467 239.785ZM305.172 209.406H332.594V208.406H305.172V209.406ZM332.947 209.26L337.791 204.416L337.084 203.709L332.24 208.553L332.947 209.26ZM336.998 204.301L356.451 240.238L357.33 239.762L337.877 203.824L336.998 204.301ZM402.047 240V240.5H402.547V240H402.047ZM388.219 240L387.865 240.354L388.012 240.5H388.219V240ZM367.516 219.297H367.016V219.504L367.162 219.65L367.516 219.297ZM367.516 177.734L367.162 177.381L367.016 177.527V177.734H367.516ZM388.219 157.031V156.531H388.012L387.865 156.678L388.219 157.031ZM402.047 157.031H402.547V156.531H402.047V157.031ZM407.516 206.719H407.016V207.219H407.516V206.719ZM407.516 192.266V191.766H407.016V192.266H407.516ZM425.719 192.266V192.766H426.219V192.266H425.719ZM425.719 177.734H426.219V177.234H425.719V177.734ZM407.516 177.734H407.016V178.234H407.516V177.734ZM407.516 157.031V156.531H407.016V157.031H407.516ZM436.812 157.031L437.166 156.678L437.02 156.531H436.812V157.031ZM457.516 177.734H458.016V177.527L457.869 177.381L457.516 177.734ZM457.516 206.719V207.219H458.016V206.719H457.516ZM407.516 240H407.016V240.5H407.516V240ZM407.516 220.625V220.125H407.016V220.625H407.516ZM453.922 220.625H454.422V220.125H453.922V220.625ZM453.922 229.609L454.277 229.962L454.422 229.815V229.609H453.922ZM443.609 240V240.5H443.818L443.964 240.352L443.609 240ZM402.047 239.5H388.219V240.5H402.047V239.5ZM388.572 239.646L367.869 218.943L367.162 219.65L387.865 240.354L388.572 239.646ZM368.016 219.297V177.734H367.016V219.297H368.016ZM367.869 178.088L388.572 157.385L387.865 156.678L367.162 177.381L367.869 178.088ZM388.219 157.531H402.047V156.531H388.219V157.531ZM401.547 157.031V240H402.547V157.031H401.547ZM408.016 206.719V192.266H407.016V206.719H408.016ZM407.516 192.766H425.719V191.766H407.516V192.766ZM426.219 192.266V177.734H425.219V192.266H426.219ZM425.719 177.234H407.516V178.234H425.719V177.234ZM408.016 177.734V157.031H407.016V177.734H408.016ZM407.516 157.531H436.812V156.531H407.516V157.531ZM436.459 157.385L457.162 178.088L457.869 177.381L437.166 156.678L436.459 157.385ZM457.016 177.734V206.719H458.016V177.734H457.016ZM457.516 206.219H407.516V207.219H457.516V206.219ZM408.016 240V220.625H407.016V240H408.016ZM407.516 221.125H453.922V220.125H407.516V221.125ZM453.422 220.625V229.609H454.422V220.625H453.422ZM453.567 229.257L443.254 239.648L443.964 240.352L454.277 229.962L453.567 229.257ZM443.609 239.5H407.516V240.5H443.609V239.5ZM490.328 157.031V156.531H490.122L489.975 156.677L490.328 157.031ZM504.156 157.031H504.656V156.531H504.156V157.031ZM504.156 186.328H503.656V186.828H504.156V186.328ZM543.531 186.328L543.886 185.976L543.74 185.828H543.531V186.328ZM561.5 204.453H562V204.247L561.855 204.101L561.5 204.453ZM561.5 220.625L561.854 220.978L562 220.832V220.625H561.5ZM542.203 240V240.5H542.411L542.557 240.353L542.203 240ZM526.969 240H526.469V240.5H526.969V240ZM526.969 208.672H527.469V208.172H526.969V208.672ZM489.625 208.672L489.279 209.032L489.424 209.172H489.625V208.672ZM471.656 191.406H471.156V191.619L471.31 191.767L471.656 191.406ZM471.656 175.625L471.303 175.271L471.156 175.417V175.625H471.656ZM506.188 224.766H505.688V225.266H506.188V224.766ZM521.5 224.766H522V224.266H521.5V224.766ZM521.5 240L521.499 240.5L522 240.501V240H521.5ZM485.953 239.922L485.571 240.244L485.72 240.421L485.952 240.422L485.953 239.922ZM471.578 222.891H471.078V223.073L471.196 223.213L471.578 222.891ZM471.578 216.25V215.75H471.078V216.25H471.578ZM506.188 216.25H506.688V215.75H506.188V216.25ZM526.969 172.266H527.469V171.766H526.969V172.266ZM509.625 172.266H509.125V172.766H509.625V172.266ZM509.625 157.031V156.531H509.125V157.031H509.625ZM546.344 157.031L546.697 156.678L546.551 156.531H546.344V157.031ZM558.688 169.375H559.188V169.168L559.041 169.021L558.688 169.375ZM558.688 178.75V179.25H559.188V178.75H558.688ZM526.969 178.75H526.469V179.25H526.969V178.75ZM490.328 157.531H504.156V156.531H490.328V157.531ZM503.656 157.031V186.328H504.656V157.031H503.656ZM504.156 186.828H543.531V185.828H504.156V186.828ZM543.176 186.68L561.145 204.805L561.855 204.101L543.886 185.976L543.176 186.68ZM561 204.453V220.625H562V204.453H561ZM561.146 220.272L541.849 239.647L542.557 240.353L561.854 220.978L561.146 220.272ZM542.203 239.5H526.969V240.5H542.203V239.5ZM527.469 240V208.672H526.469V240H527.469ZM526.969 208.172H489.625V209.172H526.969V208.172ZM489.971 208.311L472.003 191.046L471.31 191.767L489.279 209.032L489.971 208.311ZM472.156 191.406V175.625H471.156V191.406H472.156ZM472.009 175.979L490.681 157.386L489.975 156.677L471.303 175.271L472.009 175.979ZM506.188 225.266H521.5V224.266H506.188V225.266ZM521 224.766V240H522V224.766H521ZM521.501 239.5L485.954 239.422L485.952 240.422L521.499 240.5L521.501 239.5ZM486.335 239.599L471.96 222.568L471.196 223.213L485.571 240.244L486.335 239.599ZM472.078 222.891V216.25H471.078V222.891H472.078ZM471.578 216.75H506.188V215.75H471.578V216.75ZM505.688 216.25V224.766H506.688V216.25H505.688ZM526.969 171.766H509.625V172.766H526.969V171.766ZM510.125 172.266V157.031H509.125V172.266H510.125ZM509.625 157.531H546.344V156.531H509.625V157.531ZM545.99 157.385L558.334 169.729L559.041 169.021L546.697 156.678L545.99 157.385ZM558.188 169.375V178.75H559.188V169.375H558.188ZM558.688 178.25H526.969V179.25H558.688V178.25ZM527.469 178.75V172.266H526.469V178.75H527.469ZM664.312 157.031H664.812V156.531H664.312V157.031ZM664.312 240V240.5H664.812V240H664.312ZM629.781 240H629.281V240.5H629.781V240ZM629.781 157.031V156.531H629.281V157.031H629.781ZM608.922 219.297H608.422V219.797H608.922V219.297ZM624.312 219.297H624.812V218.797H624.312V219.297ZM624.312 229.609L624.673 229.956L624.812 229.811V229.609H624.312ZM614.312 240V240.5H614.525L614.673 240.347L614.312 240ZM595.172 240L594.819 240.354L594.965 240.5H595.172V240ZM574.391 219.297H573.891V219.505L574.038 219.651L574.391 219.297ZM574.391 157.031V156.531H573.891V157.031H574.391ZM608.922 157.031H609.422V156.531H608.922V157.031ZM663.812 157.031V240H664.812V157.031H663.812ZM664.312 239.5H629.781V240.5H664.312V239.5ZM630.281 240V157.031H629.281V240H630.281ZM629.781 157.531H664.312V156.531H629.781V157.531ZM608.922 219.797H624.312V218.797H608.922V219.797ZM623.812 219.297V229.609H624.812V219.297H623.812ZM623.952 229.263L613.952 239.653L614.673 240.347L624.673 229.956L623.952 229.263ZM614.312 239.5H595.172V240.5H614.312V239.5ZM595.525 239.646L574.744 218.943L574.038 219.651L594.819 240.354L595.525 239.646ZM574.891 219.297V157.031H573.891V219.297H574.891ZM574.391 157.531H608.922V156.531H574.391V157.531ZM608.422 157.031V219.297H609.422V157.031H608.422ZM730.562 240V240.5H731.062V240H730.562ZM699.938 240L699.584 240.354L699.73 240.5H699.938V240ZM680.562 220.625H680.062V220.832L680.209 220.979L680.562 220.625ZM680.562 125.391V124.891H680.062V125.391H680.562ZM715.094 125.391H715.594V124.891H715.094V125.391ZM715.094 219.297H714.594V219.797H715.094V219.297ZM730.562 219.297H731.062V218.797H730.562V219.297ZM730.562 239.5H699.938V240.5H730.562V239.5ZM700.291 239.646L680.916 220.271L680.209 220.979L699.584 240.354L700.291 239.646ZM681.062 220.625V125.391H680.062V220.625H681.062ZM680.562 125.891H715.094V124.891H680.562V125.891ZM714.594 125.391V219.297H715.594V125.391H714.594ZM715.094 219.797H730.562V218.797H715.094V219.797ZM730.062 219.297V240H731.062V219.297H730.062ZM774.938 219.297H774.438V219.797H774.938V219.297ZM797.75 219.297H798.25V218.797H797.75V219.297ZM797.75 240V240.5H798.25V240H797.75ZM761.188 240L760.835 240.354L760.981 240.5H761.188V240ZM740.406 219.297H739.906V219.505L740.053 219.651L740.406 219.297ZM740.406 177.734H740.906V177.234H740.406V177.734ZM733.531 177.734H733.031V178.234H733.531V177.734ZM733.531 157.031V156.531H733.031V157.031H733.531ZM740.406 157.031V157.531H740.906V157.031H740.406ZM740.406 148.047L740.246 147.573L739.906 147.689V148.047H740.406ZM774.938 136.328H775.438V135.63L774.777 135.855L774.938 136.328ZM780.406 177.734H779.906V178.234H780.406V177.734ZM780.406 157.031V156.531H779.906V157.031H780.406ZM799 157.031H799.5V156.531H799V157.031ZM799 177.734V178.234H799.5V177.734H799ZM774.938 219.797H797.75V218.797H774.938V219.797ZM797.25 219.297V240H798.25V219.297H797.25ZM797.75 239.5H761.188V240.5H797.75V239.5ZM761.54 239.646L740.759 218.943L740.053 219.651L760.835 240.354L761.54 239.646ZM740.906 219.297V177.734H739.906V219.297H740.906ZM740.406 177.234H733.531V178.234H740.406V177.234ZM734.031 177.734V157.031H733.031V177.734H734.031ZM733.531 157.531H740.406V156.531H733.531V157.531ZM740.906 157.031V148.047H739.906V157.031H740.906ZM740.567 148.52L775.098 136.802L774.777 135.855L740.246 147.573L740.567 148.52ZM774.438 136.328V219.297H775.438V136.328H774.438ZM780.906 177.734V157.031H779.906V177.734H780.906ZM780.406 157.531H799V156.531H780.406V157.531ZM798.5 157.031V177.734H799.5V157.031H798.5ZM799 177.234H780.406V178.234H799V177.234Z" fill="#FFA621"/>
<path d="M81.2083 95.3403C81.2083 100.553 76.9829 104.778 71.7708 104.778C66.5586 104.778 62.3333 100.553 62.3333 95.3403C62.3333 90.1281 66.5586 85.9028 71.7708 85.9028C76.9829 85.9028 81.2083 90.1281 81.2083 95.3403Z" stroke="#FFA621"/>
<path d="M128.391 124.362L128.38 124.364L77.1557 138.559L77.1557 138.559L77.1485 138.561C76.8615 138.645 76.5587 138.661 76.2645 138.608C75.9702 138.554 75.6924 138.433 75.4534 138.253C75.2144 138.073 75.0207 137.84 74.8877 137.572C74.7552 137.305 74.6867 137.011 74.6875 136.713C74.9249 124.219 83.5284 112.715 96.5731 109.1C109.603 105.489 122.898 110.925 129.561 121.508C129.716 121.764 129.808 122.052 129.832 122.35C129.855 122.649 129.808 122.95 129.695 123.228C129.581 123.505 129.404 123.753 129.178 123.95C128.951 124.147 128.682 124.288 128.391 124.362L128.391 124.362Z" stroke="#FFA621"/>
<path d="M118.75 85.7708C118.75 90.9829 114.525 95.2083 109.312 95.2083C104.1 95.2083 99.875 90.9829 99.875 85.7708C99.875 80.5586 104.1 76.3333 109.312 76.3333C114.525 76.3333 118.75 80.5586 118.75 85.7708Z" stroke="#FFA621"/>
<path fill-rule="evenodd" clip-rule="evenodd" d="M106 33.1389C58.028 33.1389 19.1389 72.028 19.1389 120C19.1389 167.972 58.028 206.861 106 206.861C153.972 206.861 192.861 167.972 192.861 120C192.861 72.028 153.972 33.1389 106 33.1389Z" stroke="#FFA621" stroke-miterlimit="10"/>
</svg>
