<svg width="619" height="251" viewBox="0 0 619 251" fill="none" xmlns="http://www.w3.org/2000/svg">
<path d="M66.4531 115H65.9531V115.5H66.4531V115ZM66.4531 76.1719H66.9531V75.6719H66.4531V76.1719ZM21.6094 76.1719L21.2558 76.5254L21.4023 76.6719H21.6094V76.1719ZM0.828125 55.3906H0.328125V55.5977L0.474572 55.7442L0.828125 55.3906ZM0.828125 32.0312L0.475238 31.677L0.328125 31.8236V32.0312H0.828125ZM21.6094 11.3281V10.8281H21.4028L21.2565 10.9739L21.6094 11.3281ZM33.3281 11.3281H33.8281V10.8281H33.3281V11.3281ZM33.3281 48.125H32.8281V48.625H33.3281V48.125ZM80.9844 48.125L81.344 47.7776L81.1965 47.625H80.9844V48.125ZM101.062 68.9062H101.562V68.7042L101.422 68.5588L101.062 68.9062ZM101.062 94.2969L101.416 94.6504L101.562 94.504V94.2969H101.062ZM80.3594 115V115.5H80.5665L80.7129 115.354L80.3594 115ZM38.7969 30H38.2969V30.5H38.7969V30ZM38.7969 11.3281V10.8281H38.2969V11.3281H38.7969ZM80.2812 11.3281L80.6356 10.9753L80.489 10.8281H80.2812V11.3281ZM98.25 29.375H98.75V29.1685L98.6043 29.0222L98.25 29.375ZM98.25 40.3906V40.8906H98.75V40.3906H98.25ZM66.4531 40.3906H65.9531V40.8906H66.4531V40.3906ZM66.4531 30H66.9531V29.5H66.4531V30ZM0.828125 83.9062V83.4062H0.328125V83.9062H0.828125ZM35.3594 83.9062H35.8594V83.4062H35.3594V83.9062ZM35.3594 96.25H34.8594V96.75H35.3594V96.25ZM60.9844 96.25H61.4844V95.75H60.9844V96.25ZM60.9844 115V115.5H61.4844V115H60.9844ZM18.25 115L17.8674 115.322L18.0173 115.5H18.25V115ZM0.828125 94.2969H0.328125V94.4793L0.445557 94.6188L0.828125 94.2969ZM66.9531 115V76.1719H65.9531V115H66.9531ZM66.4531 75.6719H21.6094V76.6719H66.4531V75.6719ZM21.9629 75.8183L1.18168 55.0371L0.474572 55.7442L21.2558 76.5254L21.9629 75.8183ZM1.32812 55.3906V32.0312H0.328125V55.3906H1.32812ZM1.18101 32.3855L21.9623 11.6823L21.2565 10.9739L0.475238 31.677L1.18101 32.3855ZM21.6094 11.8281H33.3281V10.8281H21.6094V11.8281ZM32.8281 11.3281V48.125H33.8281V11.3281H32.8281ZM33.3281 48.625H80.9844V47.625H33.3281V48.625ZM80.6248 48.4724L100.703 69.2537L101.422 68.5588L81.344 47.7776L80.6248 48.4724ZM100.562 68.9062V94.2969H101.562V68.9062H100.562ZM100.709 93.9433L80.0058 114.646L80.7129 115.354L101.416 94.6504L100.709 93.9433ZM80.3594 114.5H66.4531V115.5H80.3594V114.5ZM39.2969 30V11.3281H38.2969V30H39.2969ZM38.7969 11.8281H80.2812V10.8281H38.7969V11.8281ZM79.9269 11.6809L97.8957 29.7278L98.6043 29.0222L80.6356 10.9753L79.9269 11.6809ZM97.75 29.375V40.3906H98.75V29.375H97.75ZM98.25 39.8906H66.4531V40.8906H98.25V39.8906ZM66.9531 40.3906V30H65.9531V40.3906H66.9531ZM66.4531 29.5H38.7969V30.5H66.4531V29.5ZM0.828125 84.4062H35.3594V83.4062H0.828125V84.4062ZM34.8594 83.9062V96.25H35.8594V83.9062H34.8594ZM35.3594 96.75H60.9844V95.75H35.3594V96.75ZM60.4844 96.25V115H61.4844V96.25H60.4844ZM60.9844 114.5H18.25V115.5H60.9844V114.5ZM18.6326 114.678L1.21069 93.9749L0.445557 94.6188L17.8674 115.322L18.6326 114.678ZM1.32812 94.2969V83.9062H0.328125V94.2969H1.32812ZM150.672 115V115.5H151.172V115H150.672ZM136.844 115L136.49 115.354L136.637 115.5H136.844V115ZM116.141 94.2969H115.641V94.504L115.787 94.6504L116.141 94.2969ZM116.141 52.7344L115.787 52.3808L115.641 52.5273V52.7344H116.141ZM136.844 32.0312V31.5312H136.637L136.49 31.6777L136.844 32.0312ZM150.672 32.0312H151.172V31.5312H150.672V32.0312ZM156.141 81.7188H155.641V82.2188H156.141V81.7188ZM156.141 67.2656V66.7656H155.641V67.2656H156.141ZM174.344 67.2656V67.7656H174.844V67.2656H174.344ZM174.344 52.7344H174.844V52.2344H174.344V52.7344ZM156.141 52.7344H155.641V53.2344H156.141V52.7344ZM156.141 32.0312V31.5312H155.641V32.0312H156.141ZM185.438 32.0312L185.791 31.6777L185.645 31.5312H185.438V32.0312ZM206.141 52.7344H206.641V52.5273L206.494 52.3808L206.141 52.7344ZM206.141 81.7188V82.2188H206.641V81.7188H206.141ZM156.141 115H155.641V115.5H156.141V115ZM156.141 95.625V95.125H155.641V95.625H156.141ZM202.547 95.625H203.047V95.125H202.547V95.625ZM202.547 104.609L202.902 104.962L203.047 104.815V104.609H202.547ZM192.234 115V115.5H192.443L192.589 115.352L192.234 115ZM150.672 114.5H136.844V115.5H150.672V114.5ZM137.197 114.646L116.494 93.9433L115.787 94.6504L136.49 115.354L137.197 114.646ZM116.641 94.2969V52.7344H115.641V94.2969H116.641ZM116.494 53.0879L137.197 32.3848L136.49 31.6777L115.787 52.3808L116.494 53.0879ZM136.844 32.5312H150.672V31.5312H136.844V32.5312ZM150.172 32.0312V115H151.172V32.0312H150.172ZM156.641 81.7188V67.2656H155.641V81.7188H156.641ZM156.141 67.7656H174.344V66.7656H156.141V67.7656ZM174.844 67.2656V52.7344H173.844V67.2656H174.844ZM174.344 52.2344H156.141V53.2344H174.344V52.2344ZM156.641 52.7344V32.0312H155.641V52.7344H156.641ZM156.141 32.5312H185.438V31.5312H156.141V32.5312ZM185.084 32.3848L205.787 53.0879L206.494 52.3808L185.791 31.6777L185.084 32.3848ZM205.641 52.7344V81.7188H206.641V52.7344H205.641ZM206.141 81.2188H156.141V82.2188H206.141V81.2188ZM156.641 115V95.625H155.641V115H156.641ZM156.141 96.125H202.547V95.125H156.141V96.125ZM202.047 95.625V104.609H203.047V95.625H202.047ZM202.192 104.257L191.879 114.648L192.589 115.352L202.902 104.962L202.192 104.257ZM192.234 114.5H156.141V115.5H192.234V114.5ZM275.594 115H275.094V115.5H275.594V115ZM275.594 52.7344H276.094V52.2344H275.594V52.7344ZM226.453 52.7344H225.953V53.2344H226.453V52.7344ZM226.453 42.4219L226.1 42.0683L225.953 42.2148V42.4219H226.453ZM236.844 32.0312V31.5312H236.637L236.49 31.6777L236.844 32.0312ZM288.641 32.0312L288.994 31.6777L288.848 31.5312H288.641V32.0312ZM309.344 52.7344H309.844V52.5273L309.697 52.3808L309.344 52.7344ZM309.344 115V115.5H309.844V115H309.344ZM270.125 66.7188H270.625V66.2188H270.125V66.7188ZM270.125 81.0938V81.5938H270.625V81.0938H270.125ZM252.312 81.0938V80.5938H251.812V81.0938H252.312ZM252.312 95.625H251.812V96.125H252.312V95.625ZM270.125 95.625H270.625V95.125H270.125V95.625ZM270.125 104.766L270.477 105.121L270.625 104.974V104.766H270.125ZM259.812 115V115.5H260.018L260.165 115.355L259.812 115ZM233.406 115L233.056 115.357L233.202 115.5H233.406V115ZM219.5 101.328H219V101.538L219.149 101.685L219.5 101.328ZM219.5 80.5469L219.147 80.1923L219 80.3389V80.5469H219.5ZM233.406 66.7188V66.2188H233.2L233.054 66.3642L233.406 66.7188ZM276.094 115V52.7344H275.094V115H276.094ZM275.594 52.2344H226.453V53.2344H275.594V52.2344ZM226.953 52.7344V42.4219H225.953V52.7344H226.953ZM226.807 42.7754L237.197 32.3848L236.49 31.6777L226.1 42.0683L226.807 42.7754ZM236.844 32.5312H288.641V31.5312H236.844V32.5312ZM288.287 32.3848L308.99 53.0879L309.697 52.3808L288.994 31.6777L288.287 32.3848ZM308.844 52.7344V115H309.844V52.7344H308.844ZM309.344 114.5H275.594V115.5H309.344V114.5ZM269.625 66.7188V81.0938H270.625V66.7188H269.625ZM270.125 80.5938H252.312V81.5938H270.125V80.5938ZM251.812 81.0938V95.625H252.812V81.0938H251.812ZM252.312 96.125H270.125V95.125H252.312V96.125ZM269.625 95.625V104.766H270.625V95.625H269.625ZM269.773 104.411L259.46 114.645L260.165 115.355L270.477 105.121L269.773 104.411ZM259.812 114.5H233.406V115.5H259.812V114.5ZM233.757 114.643L219.851 100.972L219.149 101.685L233.056 115.357L233.757 114.643ZM220 101.328V80.5469H219V101.328H220ZM219.853 80.9014L233.759 67.0733L233.054 66.3642L219.147 80.1923L219.853 80.9014ZM233.406 67.2188H270.125V66.2188H233.406V67.2188ZM379.734 52.7344H380.234V52.2344H379.734V52.7344ZM365.047 52.7344H364.547V53.2344H365.047V52.7344ZM365.047 43.6719L364.692 43.3195L364.547 43.4658V43.6719H365.047ZM376.609 32.0312V31.5312H376.401L376.255 31.6789L376.609 32.0312ZM397.547 32.0312L397.925 31.7037L397.775 31.5312H397.547V32.0312ZM414.344 51.4062H414.844V51.2197L414.722 51.0787L414.344 51.4062ZM414.344 72.8906V73.3906H414.844V72.8906H414.344ZM379.734 72.8906H379.234V73.3906H379.734V72.8906ZM324.969 115H324.469V115.5H324.969V115ZM324.969 32.0312V31.5312H324.469V32.0312H324.969ZM359.5 32.0312H360V31.5312H359.5V32.0312ZM359.5 115V115.5H360V115H359.5ZM379.734 52.2344H365.047V53.2344H379.734V52.2344ZM365.547 52.7344V43.6719H364.547V52.7344H365.547ZM365.402 44.0242L376.964 32.3836L376.255 31.6789L364.692 43.3195L365.402 44.0242ZM376.609 32.5312H397.547V31.5312H376.609V32.5312ZM397.169 32.3588L413.966 51.7338L414.722 51.0787L397.925 31.7037L397.169 32.3588ZM413.844 51.4062V72.8906H414.844V51.4062H413.844ZM414.344 72.3906H379.734V73.3906H414.344V72.3906ZM380.234 72.8906V52.7344H379.234V72.8906H380.234ZM325.469 115V32.0312H324.469V115H325.469ZM324.969 32.5312H359.5V31.5312H324.969V32.5312ZM359 32.0312V115H360V32.0312H359ZM359.5 114.5H324.969V115.5H359.5V114.5ZM458.797 115V115.5H459.297V115H458.797ZM444.969 115L444.615 115.354L444.762 115.5H444.969V115ZM424.266 94.2969H423.766V94.504L423.912 94.6504L424.266 94.2969ZM424.266 52.7344L423.912 52.3808L423.766 52.5273V52.7344H424.266ZM444.969 32.0312V31.5312H444.762L444.615 31.6777L444.969 32.0312ZM458.797 32.0312H459.297V31.5312H458.797V32.0312ZM464.266 52.7344H463.766V53.2344H464.266V52.7344ZM464.266 32.0312V31.5312H463.766V32.0312H464.266ZM493.406 32.0312L493.76 31.6777L493.613 31.5312H493.406V32.0312ZM514.109 52.7344H514.609V52.5273L514.463 52.3808L514.109 52.7344ZM514.109 65.1562V65.6562H514.609V65.1562H514.109ZM479.578 65.1562H479.078V65.6562H479.578V65.1562ZM479.578 52.7344H480.078V52.2344H479.578V52.7344ZM464.266 115H463.766V115.5H464.266V115ZM464.266 95.625V95.125H463.766V95.625H464.266ZM479.578 95.625V96.125H480.078V95.625H479.578ZM479.578 85.2344V84.7344H479.078V85.2344H479.578ZM514.109 85.2344H514.609V84.7344H514.109V85.2344ZM514.109 94.2969L514.463 94.6504L514.609 94.504V94.2969H514.109ZM493.406 115V115.5H493.613L493.76 115.354L493.406 115ZM458.797 114.5H444.969V115.5H458.797V114.5ZM445.322 114.646L424.619 93.9433L423.912 94.6504L444.615 115.354L445.322 114.646ZM424.766 94.2969V52.7344H423.766V94.2969H424.766ZM424.619 53.0879L445.322 32.3848L444.615 31.6777L423.912 52.3808L424.619 53.0879ZM444.969 32.5312H458.797V31.5312H444.969V32.5312ZM458.297 32.0312V115H459.297V32.0312H458.297ZM464.766 52.7344V32.0312H463.766V52.7344H464.766ZM464.266 32.5312H493.406V31.5312H464.266V32.5312ZM493.053 32.3848L513.756 53.0879L514.463 52.3808L493.76 31.6777L493.053 32.3848ZM513.609 52.7344V65.1562H514.609V52.7344H513.609ZM514.109 64.6562H479.578V65.6562H514.109V64.6562ZM480.078 65.1562V52.7344H479.078V65.1562H480.078ZM479.578 52.2344H464.266V53.2344H479.578V52.2344ZM464.766 115V95.625H463.766V115H464.766ZM464.266 96.125H479.578V95.125H464.266V96.125ZM480.078 95.625V85.2344H479.078V95.625H480.078ZM479.578 85.7344H514.109V84.7344H479.578V85.7344ZM513.609 85.2344V94.2969H514.609V85.2344H513.609ZM513.756 93.9433L493.053 114.646L493.76 115.354L514.463 94.6504L513.756 93.9433ZM493.406 114.5H464.266V115.5H493.406V114.5ZM528.406 0.390625V-0.109375H527.906V0.390625H528.406ZM562.938 0.390625H563.438V-0.109375H562.938V0.390625ZM562.938 115V115.5H563.438V115H562.938ZM528.406 115H527.906V115.5H528.406V115ZM583.641 52.7344H584.141V52.2344H583.641V52.7344ZM568.406 52.7344H567.906V53.2344H568.406V52.7344ZM568.406 42.2656L568.051 41.9134L567.906 42.0596V42.2656H568.406ZM578.562 32.0312V31.5312H578.354L578.208 31.6791L578.562 32.0312ZM597.469 32.0312L597.822 31.677L597.675 31.5312H597.469V32.0312ZM618.25 52.7344H618.75V52.5267L618.603 52.3802L618.25 52.7344ZM618.25 115V115.5H618.75V115H618.25ZM583.641 115H583.141V115.5H583.641V115ZM528.406 0.890625H562.938V-0.109375H528.406V0.890625ZM562.438 0.390625V115H563.438V0.390625H562.438ZM562.938 114.5H528.406V115.5H562.938V114.5ZM528.906 115V0.390625H527.906V115H528.906ZM583.641 52.2344H568.406V53.2344H583.641V52.2344ZM568.906 52.7344V42.2656H567.906V52.7344H568.906ZM568.761 42.6178L578.917 32.3834L578.208 31.6791L568.051 41.9134L568.761 42.6178ZM578.562 32.5312H597.469V31.5312H578.562V32.5312ZM597.116 32.3855L617.897 53.0886L618.603 52.3802L597.822 31.677L597.116 32.3855ZM617.75 52.7344V115H618.75V52.7344H617.75ZM618.25 114.5H583.641V115.5H618.25V114.5ZM584.141 115V52.7344H583.141V115H584.141ZM125.594 157.094V156.594H125.094V157.094H125.594ZM125.594 251V251.5H126.094V251H125.594ZM90.9844 251H90.4844V251.5H90.9844V251ZM90.9844 188.734H91.4844V188.234H90.9844V188.734ZM82.7812 188.734H82.2812V189.234H82.7812V188.734ZM82.7812 168.031V167.531H82.2812V168.031H82.7812ZM90.9844 168.031V168.531H91.4844V168.031H90.9844ZM90.9844 155.766L90.6441 155.399L90.4844 155.548V155.766H90.9844ZM111.844 136.391V135.891H111.647L111.503 136.024L111.844 136.391ZM150.594 136.391H151.094V135.891H150.594V136.391ZM150.594 157.094V157.594H151.094V157.094H150.594ZM130.828 188.734L130.328 188.729L130.322 189.234H130.828V188.734ZM131.062 168.031V167.531H130.568L130.563 168.026L131.062 168.031ZM150.594 168.031H151.094V167.531H150.594V168.031ZM150.594 188.734V189.234H151.094V188.734H150.594ZM125.094 157.094V251H126.094V157.094H125.094ZM125.594 250.5H90.9844V251.5H125.594V250.5ZM91.4844 251V188.734H90.4844V251H91.4844ZM90.9844 188.234H82.7812V189.234H90.9844V188.234ZM83.2812 188.734V168.031H82.2812V188.734H83.2812ZM82.7812 168.531H90.9844V167.531H82.7812V168.531ZM91.4844 168.031V155.766H90.4844V168.031H91.4844ZM91.3247 156.132L112.184 136.757L111.503 136.024L90.6441 155.399L91.3247 156.132ZM111.844 136.891H150.594V135.891H111.844V136.891ZM150.094 136.391V157.094H151.094V136.391H150.094ZM150.594 156.594H125.594V157.594H150.594V156.594ZM131.328 188.74L131.562 168.037L130.563 168.026L130.328 188.729L131.328 188.74ZM131.062 168.531H150.594V167.531H131.062V168.531ZM150.094 168.031V188.734H151.094V168.031H150.094ZM150.594 188.234H130.828V189.234H150.594V188.234ZM251.375 230.297L251.729 230.65L251.875 230.504V230.297H251.375ZM230.672 251V251.5H230.879L231.025 251.354L230.672 251ZM207.547 251H207.047V251.5H207.547V251ZM207.547 231.625V231.125H207.047V231.625H207.547ZM216.141 231.625V232.125H216.641V231.625H216.141ZM216.141 188.734H216.641V188.234H216.141V188.734ZM207.547 188.734H207.047V189.234H207.547V188.734ZM207.547 168.031V167.531H207.047V168.031H207.547ZM230.672 168.031L231.025 167.678L230.879 167.531H230.672V168.031ZM251.375 188.734H251.875V188.527L251.729 188.381L251.375 188.734ZM193.094 231.625H192.594V232.125H193.094V231.625ZM202.078 231.625H202.578V231.125H202.078V231.625ZM202.078 251V251.5H202.578V251H202.078ZM178.875 251L178.521 251.354L178.668 251.5H178.875V251ZM158.172 230.297H157.672V230.504L157.818 230.65L158.172 230.297ZM158.172 188.734L157.818 188.381L157.672 188.527V188.734H158.172ZM178.875 168.031V167.531H178.668L178.521 167.678L178.875 168.031ZM202.078 168.031H202.578V167.531H202.078V168.031ZM202.078 188.734V189.234H202.578V188.734H202.078ZM193.094 188.734V188.234H192.594V188.734H193.094ZM251.021 229.943L230.318 250.646L231.025 251.354L251.729 230.65L251.021 229.943ZM230.672 250.5H207.547V251.5H230.672V250.5ZM208.047 251V231.625H207.047V251H208.047ZM207.547 232.125H216.141V231.125H207.547V232.125ZM216.641 231.625V188.734H215.641V231.625H216.641ZM216.141 188.234H207.547V189.234H216.141V188.234ZM208.047 188.734V168.031H207.047V188.734H208.047ZM207.547 168.531H230.672V167.531H207.547V168.531ZM230.318 168.385L251.021 189.088L251.729 188.381L231.025 167.678L230.318 168.385ZM250.875 188.734V230.297H251.875V188.734H250.875ZM193.094 232.125H202.078V231.125H193.094V232.125ZM201.578 231.625V251H202.578V231.625H201.578ZM202.078 250.5H178.875V251.5H202.078V250.5ZM179.229 250.646L158.525 229.943L157.818 230.65L178.521 251.354L179.229 250.646ZM158.672 230.297V188.734H157.672V230.297H158.672ZM158.525 189.088L179.229 168.385L178.521 167.678L157.818 188.381L158.525 189.088ZM178.875 168.531H202.078V167.531H178.875V168.531ZM201.578 168.031V188.734H202.578V168.031H201.578ZM202.078 188.234H193.094V189.234H202.078V188.234ZM192.594 188.734V231.625H193.594V188.734H192.594ZM267 251H266.5V251.5H267V251ZM267 168.031V167.531H266.5V168.031H267ZM301.844 168.031H302.344V167.531H301.844V168.031ZM301.844 251V251.5H302.344V251H301.844ZM322.312 188.734H322.812V188.234H322.312V188.734ZM307.469 188.734H306.969V189.234H307.469V188.734ZM307.469 179.672L307.114 179.32L306.969 179.466V179.672H307.469ZM319.031 168.031V167.531H318.823L318.677 167.679L319.031 168.031ZM338.25 168.031L338.604 167.678L338.457 167.531H338.25V168.031ZM356.922 186.703H357.422V186.496L357.275 186.35L356.922 186.703ZM356.922 251V251.5H357.422V251H356.922ZM322.312 251H321.812V251.5H322.312V251ZM267.5 251V168.031H266.5V251H267.5ZM267 168.531H301.844V167.531H267V168.531ZM301.344 168.031V251H302.344V168.031H301.344ZM301.844 250.5H267V251.5H301.844V250.5ZM322.312 188.234H307.469V189.234H322.312V188.234ZM307.969 188.734V179.672H306.969V188.734H307.969ZM307.823 180.024L319.386 168.384L318.677 167.679L307.114 179.32L307.823 180.024ZM319.031 168.531H338.25V167.531H319.031V168.531ZM337.896 168.385L356.568 187.057L357.275 186.35L338.604 167.678L337.896 168.385ZM356.422 186.703V251H357.422V186.703H356.422ZM356.922 250.5H322.312V251.5H356.922V250.5ZM322.812 251V188.734H321.812V251H322.812ZM408.406 230.297H407.906V230.797H408.406V230.297ZM431.219 230.297H431.719V229.797H431.219V230.297ZM431.219 251V251.5H431.719V251H431.219ZM394.656 251L394.303 251.354L394.45 251.5H394.656V251ZM373.875 230.297H373.375V230.505L373.522 230.651L373.875 230.297ZM373.875 188.734H374.375V188.234H373.875V188.734ZM367 188.734H366.5V189.234H367V188.734ZM367 168.031V167.531H366.5V168.031H367ZM373.875 168.031V168.531H374.375V168.031H373.875ZM373.875 159.047L373.714 158.573L373.375 158.689V159.047H373.875ZM408.406 147.328H408.906V146.63L408.246 146.855L408.406 147.328ZM413.875 188.734H413.375V189.234H413.875V188.734ZM413.875 168.031V167.531H413.375V168.031H413.875ZM432.469 168.031H432.969V167.531H432.469V168.031ZM432.469 188.734V189.234H432.969V188.734H432.469ZM408.406 230.797H431.219V229.797H408.406V230.797ZM430.719 230.297V251H431.719V230.297H430.719ZM431.219 250.5H394.656V251.5H431.219V250.5ZM395.009 250.646L374.228 229.943L373.522 230.651L394.303 251.354L395.009 250.646ZM374.375 230.297V188.734H373.375V230.297H374.375ZM373.875 188.234H367V189.234H373.875V188.234ZM367.5 188.734V168.031H366.5V188.734H367.5ZM367 168.531H373.875V167.531H367V168.531ZM374.375 168.031V159.047H373.375V168.031H374.375ZM374.036 159.52L408.567 147.802L408.246 146.855L373.714 158.573L374.036 159.52ZM407.906 147.328V230.297H408.906V147.328H407.906ZM414.375 188.734V168.031H413.375V188.734H414.375ZM413.875 168.531H432.469V167.531H413.875V168.531ZM431.969 168.031V188.734H432.969V168.031H431.969ZM432.469 188.234H413.875V189.234H432.469V188.234ZM462.547 168.031V167.531H462.34L462.194 167.677L462.547 168.031ZM476.375 168.031H476.875V167.531H476.375V168.031ZM476.375 197.328H475.875V197.828H476.375V197.328ZM515.75 197.328L516.105 196.976L515.958 196.828H515.75V197.328ZM533.719 215.453H534.219V215.247L534.074 215.101L533.719 215.453ZM533.719 231.625L534.073 231.978L534.219 231.832V231.625H533.719ZM514.422 251V251.5H514.63L514.776 251.353L514.422 251ZM499.188 251H498.688V251.5H499.188V251ZM499.188 219.672H499.688V219.172H499.188V219.672ZM461.844 219.672L461.497 220.032L461.642 220.172H461.844V219.672ZM443.875 202.406H443.375V202.619L443.529 202.767L443.875 202.406ZM443.875 186.625L443.522 186.271L443.375 186.417V186.625H443.875ZM478.406 235.766H477.906V236.266H478.406V235.766ZM493.719 235.766H494.219V235.266H493.719V235.766ZM493.719 251L493.718 251.5L494.219 251.501V251H493.719ZM458.172 250.922L457.79 251.244L457.939 251.421L458.171 251.422L458.172 250.922ZM443.797 233.891H443.297V234.073L443.415 234.213L443.797 233.891ZM443.797 227.25V226.75H443.297V227.25H443.797ZM478.406 227.25H478.906V226.75H478.406V227.25ZM499.188 183.266H499.688V182.766H499.188V183.266ZM481.844 183.266H481.344V183.766H481.844V183.266ZM481.844 168.031V167.531H481.344V168.031H481.844ZM518.562 168.031L518.916 167.678L518.77 167.531H518.562V168.031ZM530.906 180.375H531.406V180.168L531.26 180.021L530.906 180.375ZM530.906 189.75V190.25H531.406V189.75H530.906ZM499.188 189.75H498.688V190.25H499.188V189.75ZM462.547 168.531H476.375V167.531H462.547V168.531ZM475.875 168.031V197.328H476.875V168.031H475.875ZM476.375 197.828H515.75V196.828H476.375V197.828ZM515.395 197.68L533.364 215.805L534.074 215.101L516.105 196.976L515.395 197.68ZM533.219 215.453V231.625H534.219V215.453H533.219ZM533.365 231.272L514.068 250.647L514.776 251.353L534.073 231.978L533.365 231.272ZM514.422 250.5H499.188V251.5H514.422V250.5ZM499.688 251V219.672H498.688V251H499.688ZM499.188 219.172H461.844V220.172H499.188V219.172ZM462.19 219.311L444.221 202.046L443.529 202.767L461.497 220.032L462.19 219.311ZM444.375 202.406V186.625H443.375V202.406H444.375ZM444.228 186.979L462.9 168.386L462.194 167.677L443.522 186.271L444.228 186.979ZM478.406 236.266H493.719V235.266H478.406V236.266ZM493.219 235.766V251H494.219V235.766H493.219ZM493.72 250.5L458.173 250.422L458.171 251.422L493.718 251.5L493.72 250.5ZM458.554 250.599L444.179 233.568L443.415 234.213L457.79 251.244L458.554 250.599ZM444.297 233.891V227.25H443.297V233.891H444.297ZM443.797 227.75H478.406V226.75H443.797V227.75ZM477.906 227.25V235.766H478.906V227.25H477.906ZM499.188 182.766H481.844V183.766H499.188V182.766ZM482.344 183.266V168.031H481.344V183.266H482.344ZM481.844 168.531H518.562V167.531H481.844V168.531ZM518.209 168.385L530.553 180.729L531.26 180.021L518.916 167.678L518.209 168.385ZM530.406 180.375V189.75H531.406V180.375H530.406ZM530.906 189.25H499.188V190.25H530.906V189.25ZM499.688 189.75V183.266H498.688V189.75H499.688Z" fill="#FFA621"/>
</svg>
