<svg width="597" height="144" viewBox="0 0 597 144" fill="none" xmlns="http://www.w3.org/2000/svg">
<path d="M50.5859 142H28.0273C27.4414 142 27.1484 141.674 27.1484 141.023V26.9609H1.17188C0.520833 26.9609 0.195312 26.6354 0.195312 25.9844L0.390625 3.62109C0.390625 3.10026 0.651042 2.83984 1.17188 2.83984H77.1484C77.8646 2.83984 78.2227 3.10026 78.2227 3.62109V25.9844C78.2227 26.6354 77.9622 26.9609 77.4414 26.9609H51.1719L51.3672 141.023C51.3672 141.674 51.1068 142 50.5859 142ZM129.688 142H106.738C106.283 142 106.055 141.74 106.055 141.219L106.25 84.3828L79.4922 3.62109C79.362 3.10026 79.5573 2.83984 80.0781 2.83984H102.344C102.995 2.83984 103.385 3.10026 103.516 3.62109L118.262 57.4297L133.301 3.62109C133.431 3.10026 133.757 2.83984 134.277 2.83984H156.738C157.259 2.83984 157.454 3.10026 157.324 3.62109L130.273 83.6016L130.469 141.219C130.469 141.74 130.208 142 129.688 142ZM191.699 142H169.238C168.587 142 168.262 141.674 168.262 141.023L168.652 3.62109C168.652 3.10026 168.913 2.83984 169.434 2.83984H207.91C220.15 2.83984 229.818 6.58333 236.914 14.0703C244.076 21.4922 247.656 31.6159 247.656 44.4414C247.656 53.8164 245.801 61.987 242.09 68.9531C238.314 75.8542 233.431 81.1927 227.441 84.9688C221.452 88.7448 214.941 90.6328 207.91 90.6328H192.676V141.023C192.676 141.674 192.35 142 191.699 142ZM207.91 26.5703L192.676 26.7656V66.4141H207.91C212.142 66.4141 215.82 64.3958 218.945 60.3594C222.07 56.2578 223.633 50.9518 223.633 44.4414C223.633 39.2331 222.233 34.9688 219.434 31.6484C216.634 28.263 212.793 26.5703 207.91 26.5703ZM298.242 143.953C291.146 143.953 284.603 142.13 278.613 138.484C272.689 134.839 267.904 129.988 264.258 123.934C260.677 117.814 258.887 111.108 258.887 103.816L259.082 40.4375C259.082 33.0156 260.872 26.3424 264.453 20.418C267.969 14.4284 272.721 9.64323 278.711 6.0625C284.701 2.41667 291.211 0.59375 298.242 0.59375C305.534 0.59375 312.077 2.38411 317.871 5.96484C323.73 9.54557 328.418 14.3633 331.934 20.418C335.514 26.4076 337.305 33.0807 337.305 40.4375L337.5 103.816C337.5 111.108 335.742 117.781 332.227 123.836C328.646 129.956 323.893 134.839 317.969 138.484C312.044 142.13 305.469 143.953 298.242 143.953ZM298.242 119.832C302.279 119.832 305.794 118.204 308.789 114.949C311.784 111.629 313.281 107.918 313.281 103.816L313.086 40.4375C313.086 36.0104 311.686 32.2669 308.887 29.207C306.087 26.1471 302.539 24.6172 298.242 24.6172C294.141 24.6172 290.625 26.1146 287.695 29.1094C284.766 32.1042 283.301 35.8802 283.301 40.4375V103.816C283.301 108.178 284.766 111.954 287.695 115.145C290.625 118.27 294.141 119.832 298.242 119.832ZM418.066 142H353.418C352.897 142 352.637 141.674 352.637 141.023L352.832 3.81641C352.832 3.16536 353.158 2.83984 353.809 2.83984H376.074C376.725 2.83984 377.051 3.16536 377.051 3.81641L376.855 117.391H418.066C418.717 117.391 419.043 117.716 419.043 118.367V141.023C419.043 141.674 418.717 142 418.066 142ZM425.391 141.023L450.195 3.62109C450.326 3.10026 450.651 2.83984 451.172 2.83984H480.176C480.697 2.83984 481.022 3.10026 481.152 3.62109L504.98 141.023C505.046 141.674 504.785 142 504.199 142H482.031C481.38 142 481.022 141.674 480.957 141.023L478.809 126.375H451.562L449.414 141.023C449.349 141.674 449.023 142 448.438 142H426.172C425.651 142 425.391 141.674 425.391 141.023ZM466.602 48.8359L465.43 41.4141L464.551 48.8359L455.566 104.988H474.805L466.602 48.8359ZM554.102 142H518.262C517.741 142 517.48 141.674 517.48 141.023L517.871 3.62109C517.871 3.10026 518.132 2.83984 518.652 2.83984H557.129C564.616 2.83984 571.419 4.66276 577.539 8.30859C583.529 11.9544 588.249 16.8047 591.699 22.8594C595.15 28.849 596.875 35.3594 596.875 42.3906C596.875 48.1198 595.573 53.4583 592.969 58.4062C590.365 63.3542 587.272 67.3581 583.691 70.418C587.533 74.2591 590.527 78.7188 592.676 83.7969C594.824 88.875 595.898 94.2135 595.898 99.8125C595.898 107.56 594.043 114.624 590.332 121.004C586.556 127.384 581.51 132.495 575.195 136.336C568.88 140.112 561.849 142 554.102 142ZM557.129 26.5703H541.895V58.0156H557.129C561.751 58.0156 565.495 56.388 568.359 53.1328C571.224 49.8125 572.656 46.2318 572.656 42.3906C572.656 38.1589 571.126 34.4805 568.066 31.3555C565.007 28.1654 561.361 26.5703 557.129 26.5703ZM554.102 82.2344H541.895L541.699 117.586H554.102C558.919 117.586 563.053 115.828 566.504 112.312C569.954 108.797 571.68 104.63 571.68 99.8125C571.68 94.9948 569.954 90.8607 566.504 87.4102C563.053 83.9596 558.919 82.2344 554.102 82.2344Z" fill="#132127"/>
</svg>
